<svg xmlns="http://www.w3.org/2000/svg" width="44.509" height="31.163" viewBox="0 0 44.509 31.163">
  <path id="youtube_5_" data-name="youtube (5)" d="M43.592-1.206A5.576,5.576,0,0,0,39.67-5.129c-3.483-.953-17.415-.953-17.415-.953s-13.932,0-17.415.917A5.689,5.689,0,0,0,.917-1.206C0,2.277,0,9.5,0,9.5s0,7.259.917,10.705A5.577,5.577,0,0,0,4.84,24.128c3.519.953,17.415.953,17.415.953s13.932,0,17.415-.917a5.576,5.576,0,0,0,3.923-3.923c.916-3.483.916-10.705.916-10.705s.037-7.259-.917-10.742ZM17.819,16.172V2.827L29.4,9.5Zm0,0" transform="translate(-0.001 6.082)" fill="#fff"/>
</svg>
