<svg xmlns="http://www.w3.org/2000/svg" viewBox="0 0 150.5 45.33"><defs><style>.cls-1{fill:#fff;}</style></defs><title>zwebra-wh</title><g id="Слой_2" data-name="Слой 2"><g id="Слой_1-2" data-name="Слой 1"><path class="cls-1" d="M86.64,17.88c2.56.21,4.58-1,4.94-4.54V11.06c-.34-4-1.47-5.2-4.9-5.41Z"/><polygon class="cls-1" points="37.6 27.55 41.41 0.14 33.87 0.2 37.6 27.55"/><polygon class="cls-1" points="24.41 27.59 28.4 0.14 21.17 0.15 24.41 27.59"/><polygon class="cls-1" points="72.17 5.84 61.52 5.84 61.52 18.39 69.81 18.39 69.81 24.09 61.52 24.09 61.52 38.92 73.36 38.92 73.36 44.63 79.27 44.63 79.27 0.14 72.17 0.14 72.17 5.84"/><path class="cls-1" d="M41.41,44.63h13V.14l-6-.09C47.18,7.24,43.18,37.29,41.41,44.63Z"/><path class="cls-1" d="M0,5.84,9.94,6,0,44.63H20.11v-5.7H8.28c.71-1.43,6.07-22,6.47-22.15L13.81,0,0,.14Z"/><path class="cls-1" d="M86.37,38.92c3-.77,5.91-2.2,5.91-5.7V28.66c0-3.5-2.92-4.93-5.91-5.7Z"/><path class="cls-1" d="M138.61,13.52l2.49,17.38-2.52,0V35.5H142l1.21,9.12,7.34,0L143.16.14h-4.58V13.68l0-.16Zm0,17.4V35.5h-3.7l-1.21,9.12h-7L134.77.12h3.81V13.68l-2.52,17.26,2.52,0Z"/><polygon class="cls-1" points="26.78 44.54 35.71 44.59 31.27 24.09 26.78 44.54"/><path class="cls-1" d="M112.79,6.32l.07,0c3.75,2.32,3.51,9.89-.07,12.37v6.59c3.42,1.93.53,9.58,2.49,16A5.24,5.24,0,0,0,120,45.29a13.3,13.3,0,0,0,4.88-.68l-.43-3.81c-2,.34-2.42-1.42-2.46-3-.07-3.52.15-8.76-.2-10.56a6.66,6.66,0,0,0-6-5.41A9.59,9.59,0,0,0,123,13.75l.08-3.35c0-6.64-4.78-9.19-10.26-10.09v6ZM110,19.53a4.45,4.45,0,0,0,2.76-.79v6.59a4.88,4.88,0,0,0-2.78-.46l0,19.75-20.72,0c5.56-1.4,10.65-1.89,11-10.88v-4c-.13-5.21-3.41-8.88-7.23-9.35,8-2,9.06-19.57-2.58-20.33l21,0,1.26.18v6A4.29,4.29,0,0,0,110,5.76l0,13.77Z"/></g></g></svg>